<?xml version="1.0" standalone="no"?>
<!DOCTYPE svg PUBLIC "-//W3C//DTD SVG 20010904//EN"
 "http://www.w3.org/TR/2001/REC-SVG-20010904/DTD/svg10.dtd">
<svg version="1.0" xmlns="http://www.w3.org/2000/svg"
 width="512.000000pt" height="512.000000pt" viewBox="0 0 512.000000 512.000000"
 preserveAspectRatio="xMidYMid meet">

<g transform="translate(0.000000,512.000000) scale(0.100000,-0.100000)"
fill="#000000" stroke="none">
<path d="M1975 4793 c-16 -2 -72 -10 -122 -19 l-93 -16 0 -162 0 -162 88 19
c126 27 406 34 538 14 410 -65 777 -291 1013 -623 81 -115 182 -321 220 -451
81 -277 81 -589 0 -866 -38 -130 -139 -336 -220 -452 -234 -329 -595 -551
-1007 -620 -134 -23 -413 -16 -544 12 l-88 19 0 -157 c0 -130 3 -158 15 -163
8 -3 65 -13 127 -22 158 -23 459 -16 612 15 271 55 533 173 754 339 l74 55
611 -611 c576 -574 614 -610 654 -617 62 -10 100 2 143 45 43 43 56 87 45 148
-6 33 -78 109 -617 649 l-611 611 62 82 c410 545 482 1281 186 1898 -270 562
-798 945 -1415 1028 -94 12 -347 17 -425 7z"/>
<path d="M1734 4590 c0 -91 2 -128 3 -82 2 45 2 119 0 165 -1 45 -3 8 -3 -83z"/>
<path d="M1734 1340 c0 -91 2 -128 3 -82 2 45 2 119 0 165 -1 45 -3 8 -3 -83z"/>
</g>
</svg>
